<?xml version="1.0" encoding="UTF-8"?>
<svg version="1.1" xmlns="http://www.w3.org/2000/svg" viewBox="0 0 16 16">
  <path fill="#1f4f8f" d="M8 0.75C12.0039 0.75 15.25 3.9961 15.25 8C15.25 12.0039 12.0039 15.25 8 15.25C3.9961 15.25 0.75 12.0039 0.75 8C0.75 3.9961 3.9961 0.75 8 0.75ZM8 2C4.6836 2 2 4.6836 2 8C2 11.3164 4.6836 14 8 14C11.3164 14 14 11.3164 14 8C14 4.6836 11.3164 2 8 2Z"/>
  <path fill="#1f4f8f" d="M8 3.5L5.6 6.6H7.2V8H8.8V6.6H10.4L8 3.5Z"/>
  <circle fill="#1f4f8f" cx="8" cy="8" r="1.15"/>
  <path fill="#1f4f8f" d="M8 12.5L10.4 9.4H8.8V8H7.2V9.4H5.6L8 12.5Z"/>
</svg>
